<svg width="342.5599853515625px" height="113.63999023437499px" xmlns="http://www.w3.org/2000/svg" viewBox="78.72000732421876 18.180004882812504 342.5599853515625 113.63999023437499" style="background: rgba(0, 0, 0, 0) none repeat scroll 0% 0%;" preserveAspectRatio="xMidYMid"><defs><filter id="editing-lego" x="-100%" y="-100%" width="300%" height="300%"><feFlood flood-color="#000" result="f1"></feFlood><feFlood flood-color="#ffff00" result="f2"></feFlood><feMorphology operator="dilate" radius="3" in="SourceAlpha"></feMorphology><feConvolveMatrix order="5,5" divisor="1" result="cm1" kernelMatrix="0 1 1 1 0  1 0 0 0 1  1 0 0 0 1  1 0 0 0 1  0 1 1 1 0"></feConvolveMatrix><feComposite operator="in" in="f1" in2="cm1" result="c1"></feComposite><feMorphology operator="dilate" radius="3"></feMorphology><feConvolveMatrix order="5,5" divisor="1" result="cm2" kernelMatrix="0 1 1 1 0  1 0 0 0 1  1 0 0 0 1  1 0 0 0 1  0 1 1 1 0"></feConvolveMatrix><feComposite operator="in" in="f2" in2="cm2" result="c2"></feComposite><feMerge><feMergeNode in="c2"></feMergeNode><feMergeNode in="c1"></feMergeNode><feMergeNode in="SourceGraphic"></feMergeNode></feMerge></filter></defs><g filter="url(#editing-lego)"><g transform="translate(131.1499903202057, 99.34529495239258)"><path d="M25.34 0L25.34 0L3.84 0L3.84-48L25.34-48L25.34-48Q31.81-48 36.16-46.69L36.16-46.69L36.16-46.69Q40.51-45.38 43.14-42.50L43.14-42.50L43.14-42.50Q45.76-39.62 46.88-35.07L46.88-35.07L46.88-35.07Q48-30.53 48-24.06L48-24.06L48-24.06Q48-17.60 46.88-13.02L46.88-13.02L46.88-13.02Q45.76-8.45 43.14-5.57L43.14-5.57L43.14-5.57Q40.51-2.69 36.16-1.34L36.16-1.34L36.16-1.34Q31.81 0 25.34 0ZM25.60-35.71L25.60-35.71L19.20-35.71L19.20-12.29L25.60-12.29L25.60-12.29Q28.80-12.29 30.18-13.02L30.18-13.02L30.18-13.02Q31.55-13.76 31.55-16.38L31.55-16.38L31.55-31.62L31.55-31.62Q31.55-34.24 30.18-34.98L30.18-34.98L30.18-34.98Q28.80-35.71 25.60-35.71ZM68.35-13.06L68.35-13.06L68.35-10.37L68.35-10.37Q69.50-10.24 70.66-10.18L70.66-10.18L70.66-10.18Q71.81-10.11 72.96-10.11L72.96-10.11L72.96-10.11Q80.13-10.11 87.42-12.42L87.42-12.42L89.22-1.15L89.22-1.15Q80.58 1.15 72.19 1.15L72.19 1.15L72.19 1.15Q61.44 1.15 56.64-3.87L56.64-3.87L56.64-3.87Q51.84-8.90 51.84-19.20L51.84-19.20L51.84-19.20Q51.84-29.50 56.67-34.53L56.67-34.53L56.67-34.53Q61.50-39.55 72.19-39.55L72.19-39.55L72.19-39.55Q77.57-39.55 81.15-38.88L81.15-38.88L81.15-38.88Q84.74-38.21 86.94-36.64L86.94-36.64L86.94-36.64Q89.15-35.07 90.08-32.42L90.08-32.42L90.08-32.42Q91.01-29.76 91.01-25.73L91.01-25.73L91.01-25.73Q91.01-22.40 89.89-20L89.89-20L89.89-20Q88.77-17.60 86.14-16.06L86.14-16.06L86.14-16.06Q83.52-14.53 79.17-13.79L79.17-13.79L79.17-13.79Q74.82-13.06 68.35-13.06ZM68.35-25.09L68.35-25.09L68.35-21.95L71.49-21.95L71.49-21.95Q74.30-21.95 75.55-22.53L75.55-22.53L75.55-22.53Q76.80-23.10 76.80-25.22L76.80-25.22L76.80-28.35L73.66-28.35L73.66-28.35Q70.85-28.35 69.60-27.78L69.60-27.78L69.60-27.78Q68.35-27.20 68.35-25.09ZM102.53 0L123.26 0L132.86-38.40L117.50-38.40L113.28-13.44L112.51-13.44L108.29-38.40L92.93-38.40L102.53 0ZM169.09 0L169.09-10.24L161.92-10.24L161.92-40L151.81-40L137.09-36.67L137.09-26.43L148.48-27.20L148.48-10.24L137.09-10.24L137.09 0L169.09 0ZM175.10-7.23L175.10-49.92L190.46-51.07L190.46-11.01L190.46-11.01Q191.68-10.75 192.64-10.62L192.64-10.62L192.64-10.62Q193.60-10.50 194.24-10.43L194.24-10.43L193.54 0.83L193.54 0.83Q183.74 0.83 180.54-0.32L180.54-0.32L180.54-0.32Q177.86-1.28 176.48-2.82L176.48-2.82L176.48-2.82Q175.10-4.35 175.10-7.23L175.10-7.23ZM202.56-36.86L202.56-36.86L202.56-36.86Q207.49-39.55 216.06-39.55L216.06-39.55L216.06-39.55Q224.70-39.55 231.87-37.18L231.87-37.18L230.08-26.75L230.08-26.75Q227.07-27.65 224.13-28.03L224.13-28.03L224.13-28.03Q221.18-28.42 218.11-28.42L218.11-28.42L218.11-28.42Q217.22-28.42 215.90-28.35L215.90-28.35L215.90-28.35Q214.59-28.29 212.93-28.10L212.93-28.10L212.93-25.66L212.93-25.66Q216.45-25.66 220.16-25.31L220.16-25.31L220.16-25.31Q223.87-24.96 226.91-23.65L226.91-23.65L226.91-23.65Q229.95-22.34 231.90-19.74L231.90-19.74L231.90-19.74Q233.86-17.15 233.86-12.67L233.86-12.67L233.86-12.67Q233.86-9.54 233.15-7.07L233.15-7.07L233.15-7.07Q232.45-4.61 230.98-3.14L230.98-3.14L230.98-3.14Q229.44-1.66 227.81-0.77L227.81-0.77L227.81-0.77Q226.18 0.13 223.55 0.51L223.55 0.51L223.55 0.51Q221.50 0.83 219.17 0.99L219.17 0.99L219.17 0.99Q216.83 1.15 214.14 1.15L214.14 1.15L214.14 1.15Q204.74 1.15 196.93-1.09L196.93-1.09L198.85-11.97L198.85-11.97Q202.11-11.01 205.57-10.50L205.57-10.50L205.57-10.50Q209.02-9.98 212.80-9.98L212.80-9.98L212.80-9.98Q214.53-9.98 216.10-10.05L216.10-10.05L216.10-10.05Q217.66-10.11 219.14-10.30L219.14-10.30L219.14-12.74L219.14-12.74Q212.99-12.74 208.86-13.54L208.86-13.54L208.86-13.54Q204.74-14.34 202.21-16L202.21-16L202.21-16Q199.68-17.66 198.62-20.35L198.62-20.35L198.62-20.35Q197.57-23.04 197.57-26.75L197.57-26.75L197.57-26.75Q197.57-34.18 202.56-36.86Z" fill="#fff"></path></g></g><style>text {
  font-size: 64px;
  font-family: Arial Black;
  dominant-baseline: central;
  text-anchor: middle;
}</style></svg>